<svg width="33" height="32" viewBox="0 0 33 32" fill="none" xmlns="http://www.w3.org/2000/svg">
<path d="M28.4997 16C28.4997 15.6464 28.3592 15.3072 28.1092 15.0572C27.8591 14.8071 27.52 14.6667 27.1664 14.6667C26.8128 14.6667 26.4736 14.8071 26.2236 15.0572C25.9735 15.3072 25.833 15.6464 25.833 16V19.0667L20.1797 12.4C19.9756 12.1614 19.6938 12.0025 19.3841 11.9513C19.0743 11.9001 18.7564 11.9598 18.4864 12.12L12.793 15.6L6.85971 8.48C6.74765 8.34518 6.61013 8.23374 6.45501 8.15207C6.29988 8.07039 6.13018 8.02007 5.95561 8.00397C5.78104 7.98788 5.605 8.00632 5.43756 8.05826C5.27011 8.1102 5.11454 8.1946 4.97971 8.30667C4.84489 8.41873 4.73346 8.55625 4.65178 8.71137C4.5701 8.8665 4.51978 9.03619 4.50369 9.21077C4.48759 9.38534 4.50604 9.56138 4.55797 9.72882C4.60991 9.89627 4.69432 10.0518 4.80638 10.1867L11.473 18.1867C11.676 18.4307 11.9594 18.5943 12.2723 18.6481C12.5851 18.7019 12.9069 18.6423 13.1797 18.48L18.8864 15.0533L24.2197 21.3333H20.4997C20.1461 21.3333 19.8069 21.4738 19.5569 21.7239C19.3069 21.9739 19.1664 22.313 19.1664 22.6667C19.1664 23.0203 19.3069 23.3594 19.5569 23.6095C19.8069 23.8595 20.1461 24 20.4997 24H27.1664C27.3305 23.996 27.4927 23.9644 27.6464 23.9067L27.833 23.8C27.9026 23.765 27.9694 23.7249 28.033 23.68C28.1061 23.614 28.169 23.5377 28.2197 23.4533C28.2644 23.3942 28.3045 23.3318 28.3397 23.2667C28.3723 23.1946 28.3948 23.1183 28.4064 23.04C28.4604 22.9224 28.4921 22.7958 28.4997 22.6667V16Z" fill="#FCFCFC"/>
</svg>
